<mxfile host="app.diagrams.net" modified="2022-06-21T22:59:45.330Z" agent="5.0 (Windows NT 10.0; Win64; x64) AppleWebKit/537.36 (KHTML, like Gecko) Chrome/102.0.5005.115 Safari/537.36" etag="fIILypTrM9tJmzr9cejx" version="20.0.2" type="github">
  <diagram id="dsEQwGHgaHVSPAlIj2CQ" name="Page-1">
    <mxGraphModel dx="1102" dy="614" grid="1" gridSize="10" guides="1" tooltips="1" connect="1" arrows="1" fold="1" page="1" pageScale="1" pageWidth="1169" pageHeight="827" math="0" shadow="0">
      <root>
        <mxCell id="0" />
        <mxCell id="1" parent="0" />
        <mxCell id="BCzmFI4ZV3tnd4FGaQ9K-8" style="edgeStyle=orthogonalEdgeStyle;rounded=0;orthogonalLoop=1;jettySize=auto;html=1;entryX=0.5;entryY=0;entryDx=0;entryDy=0;" edge="1" parent="1" source="BCzmFI4ZV3tnd4FGaQ9K-1" target="BCzmFI4ZV3tnd4FGaQ9K-7">
          <mxGeometry relative="1" as="geometry" />
        </mxCell>
        <mxCell id="BCzmFI4ZV3tnd4FGaQ9K-1" value="Pessoa" style="rounded=0;whiteSpace=wrap;html=1;" vertex="1" parent="1">
          <mxGeometry x="120" y="90" width="120" height="60" as="geometry" />
        </mxCell>
        <mxCell id="BCzmFI4ZV3tnd4FGaQ9K-28" style="edgeStyle=orthogonalEdgeStyle;rounded=0;orthogonalLoop=1;jettySize=auto;html=1;" edge="1" parent="1" source="BCzmFI4ZV3tnd4FGaQ9K-2" target="BCzmFI4ZV3tnd4FGaQ9K-25">
          <mxGeometry relative="1" as="geometry" />
        </mxCell>
        <mxCell id="BCzmFI4ZV3tnd4FGaQ9K-2" value="Aniversário" style="rounded=0;whiteSpace=wrap;html=1;" vertex="1" parent="1">
          <mxGeometry x="120" y="330" width="120" height="60" as="geometry" />
        </mxCell>
        <mxCell id="BCzmFI4ZV3tnd4FGaQ9K-9" style="edgeStyle=orthogonalEdgeStyle;rounded=0;orthogonalLoop=1;jettySize=auto;html=1;entryX=0.5;entryY=0;entryDx=0;entryDy=0;" edge="1" parent="1" source="BCzmFI4ZV3tnd4FGaQ9K-7" target="BCzmFI4ZV3tnd4FGaQ9K-2">
          <mxGeometry relative="1" as="geometry" />
        </mxCell>
        <mxCell id="BCzmFI4ZV3tnd4FGaQ9K-7" value="Possui" style="rhombus;whiteSpace=wrap;html=1;" vertex="1" parent="1">
          <mxGeometry x="140" y="200" width="80" height="80" as="geometry" />
        </mxCell>
        <mxCell id="BCzmFI4ZV3tnd4FGaQ9K-10" value="1" style="text;html=1;strokeColor=none;fillColor=none;align=center;verticalAlign=middle;whiteSpace=wrap;rounded=0;" vertex="1" parent="1">
          <mxGeometry x="170" y="150" width="60" height="30" as="geometry" />
        </mxCell>
        <mxCell id="BCzmFI4ZV3tnd4FGaQ9K-11" value="1" style="text;html=1;strokeColor=none;fillColor=none;align=center;verticalAlign=middle;whiteSpace=wrap;rounded=0;" vertex="1" parent="1">
          <mxGeometry x="170" y="300" width="60" height="30" as="geometry" />
        </mxCell>
        <mxCell id="BCzmFI4ZV3tnd4FGaQ9K-14" style="edgeStyle=orthogonalEdgeStyle;rounded=0;orthogonalLoop=1;jettySize=auto;html=1;entryX=1;entryY=0.5;entryDx=0;entryDy=0;" edge="1" parent="1" source="BCzmFI4ZV3tnd4FGaQ9K-12" target="BCzmFI4ZV3tnd4FGaQ9K-13">
          <mxGeometry relative="1" as="geometry" />
        </mxCell>
        <mxCell id="BCzmFI4ZV3tnd4FGaQ9K-12" value="Horóscopo" style="rounded=0;whiteSpace=wrap;html=1;" vertex="1" parent="1">
          <mxGeometry x="430" y="330" width="120" height="60" as="geometry" />
        </mxCell>
        <mxCell id="BCzmFI4ZV3tnd4FGaQ9K-15" style="edgeStyle=orthogonalEdgeStyle;rounded=0;orthogonalLoop=1;jettySize=auto;html=1;entryX=1;entryY=0.5;entryDx=0;entryDy=0;" edge="1" parent="1" source="BCzmFI4ZV3tnd4FGaQ9K-13" target="BCzmFI4ZV3tnd4FGaQ9K-2">
          <mxGeometry relative="1" as="geometry" />
        </mxCell>
        <mxCell id="BCzmFI4ZV3tnd4FGaQ9K-13" value="Relacionado" style="rhombus;whiteSpace=wrap;html=1;" vertex="1" parent="1">
          <mxGeometry x="300" y="320" width="80" height="80" as="geometry" />
        </mxCell>
        <mxCell id="BCzmFI4ZV3tnd4FGaQ9K-16" value="n" style="text;html=1;strokeColor=none;fillColor=none;align=center;verticalAlign=middle;whiteSpace=wrap;rounded=0;" vertex="1" parent="1">
          <mxGeometry x="240" y="330" width="60" height="30" as="geometry" />
        </mxCell>
        <mxCell id="BCzmFI4ZV3tnd4FGaQ9K-17" value="1" style="text;html=1;strokeColor=none;fillColor=none;align=center;verticalAlign=middle;whiteSpace=wrap;rounded=0;" vertex="1" parent="1">
          <mxGeometry x="384" y="330" width="60" height="30" as="geometry" />
        </mxCell>
        <mxCell id="BCzmFI4ZV3tnd4FGaQ9K-20" style="edgeStyle=orthogonalEdgeStyle;rounded=0;orthogonalLoop=1;jettySize=auto;html=1;entryX=0.5;entryY=1;entryDx=0;entryDy=0;" edge="1" parent="1" source="BCzmFI4ZV3tnd4FGaQ9K-18" target="BCzmFI4ZV3tnd4FGaQ9K-19">
          <mxGeometry relative="1" as="geometry" />
        </mxCell>
        <mxCell id="BCzmFI4ZV3tnd4FGaQ9K-18" value="Mês" style="rounded=0;whiteSpace=wrap;html=1;" vertex="1" parent="1">
          <mxGeometry x="430" y="540" width="120" height="45" as="geometry" />
        </mxCell>
        <mxCell id="BCzmFI4ZV3tnd4FGaQ9K-21" style="edgeStyle=orthogonalEdgeStyle;rounded=0;orthogonalLoop=1;jettySize=auto;html=1;" edge="1" parent="1" source="BCzmFI4ZV3tnd4FGaQ9K-19" target="BCzmFI4ZV3tnd4FGaQ9K-12">
          <mxGeometry relative="1" as="geometry" />
        </mxCell>
        <mxCell id="BCzmFI4ZV3tnd4FGaQ9K-19" value="Tem" style="rhombus;whiteSpace=wrap;html=1;" vertex="1" parent="1">
          <mxGeometry x="450" y="420" width="80" height="80" as="geometry" />
        </mxCell>
        <mxCell id="BCzmFI4ZV3tnd4FGaQ9K-22" value="1" style="text;html=1;strokeColor=none;fillColor=none;align=center;verticalAlign=middle;whiteSpace=wrap;rounded=0;" vertex="1" parent="1">
          <mxGeometry x="470" y="510" width="60" height="30" as="geometry" />
        </mxCell>
        <mxCell id="BCzmFI4ZV3tnd4FGaQ9K-23" value="n" style="text;html=1;strokeColor=none;fillColor=none;align=center;verticalAlign=middle;whiteSpace=wrap;rounded=0;" vertex="1" parent="1">
          <mxGeometry x="480" y="390" width="60" height="30" as="geometry" />
        </mxCell>
        <mxCell id="BCzmFI4ZV3tnd4FGaQ9K-32" style="edgeStyle=orthogonalEdgeStyle;rounded=0;orthogonalLoop=1;jettySize=auto;html=1;entryX=0;entryY=0.5;entryDx=0;entryDy=0;" edge="1" parent="1" source="BCzmFI4ZV3tnd4FGaQ9K-25" target="BCzmFI4ZV3tnd4FGaQ9K-18">
          <mxGeometry relative="1" as="geometry" />
        </mxCell>
        <mxCell id="BCzmFI4ZV3tnd4FGaQ9K-25" value="Vários" style="rhombus;whiteSpace=wrap;html=1;" vertex="1" parent="1">
          <mxGeometry x="140" y="522.5" width="80" height="80" as="geometry" />
        </mxCell>
        <mxCell id="BCzmFI4ZV3tnd4FGaQ9K-29" value="n" style="text;html=1;strokeColor=none;fillColor=none;align=center;verticalAlign=middle;whiteSpace=wrap;rounded=0;" vertex="1" parent="1">
          <mxGeometry x="160" y="390" width="60" height="30" as="geometry" />
        </mxCell>
        <mxCell id="BCzmFI4ZV3tnd4FGaQ9K-33" value="n" style="text;html=1;strokeColor=none;fillColor=none;align=center;verticalAlign=middle;whiteSpace=wrap;rounded=0;" vertex="1" parent="1">
          <mxGeometry x="370" y="530" width="60" height="30" as="geometry" />
        </mxCell>
        <mxCell id="BCzmFI4ZV3tnd4FGaQ9K-34" value="Aulas-Novotec/Switch2" style="rounded=1;whiteSpace=wrap;html=1;" vertex="1" parent="1">
          <mxGeometry x="430" y="85" width="120" height="70" as="geometry" />
        </mxCell>
      </root>
    </mxGraphModel>
  </diagram>
</mxfile>
